<?xml version="1.0" encoding="UTF-8"?>
<svg version="1.1"
    xmlns="http://www.w3.org/2000/svg" viewBox="90 65 90 65" preserveAspectRatio="xMidYMid meet" width="400" height="400" transform="scale(1.7)">
    <path d="M0 0 C3.96 0 7.92 0 12 0 C11.67 0.99 11.34 1.98 11 3 C10.34 3 9.68 3 9 3 C9 12.57 9 22.14 9 32 C17.34149382 31.77080956 17.34149382 31.77080956 21 29 C21.72965366 26.43717258 21.72965366 26.43717258 22 24 C22.99 24 23.98 24 25 24 C25 27.3 25 30.6 25 34 C16.75 34 8.5 34 0 34 C0 33.34 0 32.68 0 32 C0.66 31.67 1.32 31.34 2 31 C2.33 21.76 2.66 12.52 3 3 C2.01 3 1.02 3 0 3 C0 2.01 0 1.02 0 0 Z " fill="black" transform="translate(115,82)"/>
</svg>
