<?xml version="1.0" encoding="UTF-8"?>
<svg version="1.1"
    xmlns="http://www.w3.org/2000/svg" viewBox="110 65 110 65" preserveAspectRatio="xMidYMid meet">
    <path d="M0 0 C3.96 0 7.92 0 12 0 C12 0.66 12 1.32 12 2 C11.01 2.495 11.01 2.495 10 3 C10.66 6.63 11.32 10.26 12 14 C12.66 14 13.32 14 14 14 C14.18175781 13.11248047 14.18175781 13.11248047 14.3671875 12.20703125 C15.26744643 7.96196415 16.20456621 3.97560339 18 0 C19.32 0 20.64 0 22 0 C23.65 4.62 25.3 9.24 27 14 C28.65 10.04 30.3 6.08 32 2 C31.34 2 30.68 2 30 2 C30 1.34 30 0.68 30 0 C33.3 0 36.6 0 40 0 C40 0.66 40 1.32 40 2 C39.38415039 2.23122559 38.76830078 2.46245117 38.13378906 2.70068359 C35.36603544 4.38603655 34.9512603 5.76817983 33.859375 8.7890625 C33.33730469 10.20058594 33.33730469 10.20058594 32.8046875 11.640625 C32.28261719 13.11789063 32.28261719 13.11789063 31.75 14.625 C31.38648438 15.61757812 31.02296875 16.61015625 30.6484375 17.6328125 C29.75274101 20.08419237 28.8706055 22.53962071 28 25 C26.68 25 25.36 25 24 25 C23.32779649 23.06441401 22.66241923 21.12645628 22 19.1875 C21.62875 18.10855469 21.2575 17.02960938 20.875 15.91796875 C20 13 20 13 20 10 C19.34 10 18.68 10 18 10 C17.83564453 10.87011719 17.83564453 10.87011719 17.66796875 11.7578125 C16.6856635 16.59746277 15.45178089 20.65366116 13 25 C12.01 25 11.02 25 10 25 C8.82569926 21.7318568 7.66188744 18.46007485 6.5 15.1875 C6.16613281 14.25873047 5.83226562 13.32996094 5.48828125 12.37304688 C5.17246094 11.48037109 4.85664063 10.58769531 4.53125 9.66796875 C4.23798828 8.84578857 3.94472656 8.0236084 3.64257812 7.17651367 C3 5 3 5 3 2 C2.01 2 1.02 2 0 2 C0 1.34 0 0.68 0 0 Z " fill="#000000" transform="translate(168,92)"/>
    <path d="M0 0 C3.37733113 1.67488054 5.40877132 4.07459859 7.4375 7.25 C8.39663178 11.93908868 8.38423503 16.67196836 5.8828125 20.87890625 C3.48774967 23.81958991 1.66112675 25.81775408 -2.171875 26.23828125 C-7.95507224 26.40476723 -11.55234602 26.11407993 -16 22 C-18.42814544 18.02667109 -18.73202092 13.55281303 -18 9 C-13.7563111 0.96730316 -8.86043671 -1.49537339 0 0 Z M-8 3 C-10.85169658 6.223657 -11.74724064 8.70309089 -12 13 C-11.31055961 16.3897486 -10.63359938 19.06468662 -8.6875 21.9375 C-6.2681121 23.46081831 -4.79933738 23.48988404 -2 23 C0.15287225 20.78547031 0.94195231 19.42443475 1.36328125 16.34375 C1.34652344 15.4053125 1.32976562 14.466875 1.3125 13.5 C1.30863281 12.5615625 1.30476563 11.623125 1.30078125 10.65625 C0.99021355 7.91357422 0.59472886 6.25016759 -1 4 C-4.56206661 3.18129815 -4.56206661 3.18129815 -8 3 Z " fill="#000000" transform="translate(160,91)"/>
    <path d="M0 0 C3.96 0 7.92 0 12 0 C11.67 0.99 11.34 1.98 11 3 C10.34 3 9.68 3 9 3 C9 12.57 9 22.14 9 32 C17.34149382 31.77080956 17.34149382 31.77080956 21 29 C21.72965366 26.43717258 21.72965366 26.43717258 22 24 C22.99 24 23.98 24 25 24 C25 27.3 25 30.6 25 34 C16.75 34 8.5 34 0 34 C0 33.34 0 32.68 0 32 C0.66 31.67 1.32 31.34 2 31 C2.33 21.76 2.66 12.52 3 3 C2.01 3 1.02 3 0 3 C0 2.01 0 1.02 0 0 Z " fill="#000000" transform="translate(115,82)"/>
</svg>
